<svg id="Layer_1" data-name="Layer 1" xmlns="http://www.w3.org/2000/svg" viewBox="0 0 131.2 160.72"><defs><style>.cls-1{fill:none;stroke:#231f20;stroke-miterlimit:10;stroke-width:2px;}.cls-2{fill:#fdbd4a;}.cls-3{fill:#f47c23;opacity:0.8;}</style></defs><path class="cls-1" d="M108.8,127.29" transform="translate(-14.08 -9.64)"/><path class="cls-2" d="M68.79,10.18a121.36,121.36,0,0,0-36,19.07c-9.58,7.41-17.86,14-18.65,24.27-.48,6.32,2.08,11.6,4,14.73a21,21,0,0,0,6.12,3.11c3.58,1.11,6.33.83,9.48.8,1.3,0,5.21.42,13,1.29,12.12,1.34,15.6-.47,20.89,2.41a20.27,20.27,0,0,1,5.14,4,75.12,75.12,0,0,1,7.88,11.42,65.14,65.14,0,0,1,8.68,24.1q2.56,16.39,5.14,32.79a27.44,27.44,0,0,0,9.64,16.71c2,1.92,6.1,5.35,11.57,5.47,6.67.14,11.4-4.69,17-10.45a65.82,65.82,0,0,0,12.54-18.16V11.36Z" transform="translate(-14.08 -9.64)"/><path class="cls-3" d="M33.43,9.64c-7.18,8.61-9.4,20.13-5.64,30.14,4.15,11.06,13.86,15.66,15.92,16.58,3.37,0,8,.18,13.5.69,13.42,1.25,17.06,3.27,18.33,4a26.24,26.24,0,0,1,8.8,9.19c9.77,15.56,3.22,37.87,2.12,41.44-.52,1.44-12.34,35.05,2.74,47.73a18.23,18.23,0,0,0,5.62,3.21,65.68,65.68,0,0,0,50.47-22.28v-129Z" transform="translate(-14.08 -9.64)"/></svg>